<?xml version="1.0" encoding="UTF-8"?>
<svg width="150px" height="84px" viewBox="0 0 150 84" version="1.1" xmlns="http://www.w3.org/2000/svg" xmlns:xlink="http://www.w3.org/1999/xlink">
    <!-- Generator: Sketch 52.5 (67469) - http://www.bohemiancoding.com/sketch -->
    <title>Artboard</title>
    <desc>Created with Sketch.</desc>
    <defs>
        <polygon id="path-1" points="150 42.00012 150 84 0 84 0 42.00012 0 0.00024 150 0.00024"></polygon>
    </defs>
    <g id="Artboard" stroke="none" stroke-width="1" fill="none" fill-rule="evenodd">
        <g id="icon-ents">
            <g id="Group-3">
                <g id="Fill-1-Clipped">
                    <g>
                        <mask id="mask-2" fill="white">
                            <use xlink:href="#path-1"></use>
                        </mask>
                        <g id="path-1"></g>
                        <path d="M0,32.66664 C5.178,32.66664 9.3756,36.84504 9.3756,42.00024 C9.3756,47.15424 5.178,51.33384 0,51.33384 L0,84.00024 L150,84.00024 L150,51.33504 C144.8244,51.33264 140.6304,47.15544 140.6304,42.00264 C140.6304,36.84984 144.8244,32.67264 150,32.66904 L150,0.00024 L0,0.00024 L0,32.66664 Z" id="Fill-1" fill="#F0A000" mask="url(#mask-2)"></path>
                    </g>
                </g>
            </g>
            <path d="M99.40932,69.39516 C99.36012,69.28236 99.27132,69.19596 99.15732,69.15156 C99.10332,69.12996 99.04692,69.11916 98.98932,69.11916 C98.79972,69.11916 98.63172,69.23316 98.56212,69.40956 L97.36932,72.43236 L96.17772,69.40956 C96.16692,69.38436 96.15372,69.35916 96.15252,69.35676 C96.08772,69.23796 95.97492,69.15636 95.84412,69.12876 C95.83572,69.12756 95.80812,69.12036 95.74812,69.11916 L91.79772,69.11916 C91.54572,69.11916 91.33932,69.32556 91.33932,69.57756 C91.33932,69.83076 91.54572,70.03596 91.79772,70.03596 L93.09612,70.03596 L93.09612,73.68156 C93.09612,73.93476 93.30132,74.13996 93.55452,74.13996 C93.80772,74.13996 94.01292,73.93476 94.01292,73.68156 L94.01292,70.03596 L95.43852,70.03596 C95.43852,70.03596 96.91692,73.78596 96.95052,73.86516 C97.01052,74.00436 97.13412,74.10276 97.28052,74.13156 C97.28652,74.13156 97.31772,74.13876 97.37052,74.13996 C97.56132,74.13996 97.72812,74.01636 97.78932,73.86516 C97.78932,73.86396 99.41532,69.74556 99.41532,69.74556 C99.45972,69.63156 99.45852,69.50796 99.40932,69.39516" id="Fill-4" fill="#FFFFFF"></path>
            <path d="M70.10868,68.952 C67.24068,68.952 64.91628,71.2776 64.91628,74.1456 C64.91628,77.0124 67.24068,79.338 70.10868,79.338 C72.97668,79.338 75.30228,77.0124 75.30228,74.1456 C75.30228,71.2776 72.97668,68.952 70.10868,68.952" id="Fill-6" fill="#FFFFFF"></path>
            <path d="M63.22272,69.1506 C62.38872,68.9802 61.57272,69.519 61.40352,70.353 L60.73992,73.6014 L58.30152,69.8262 C58.02552,69.4038 57.54912,69.1242 57.00792,69.1242 C56.26752,69.1242 55.64952,69.6474 55.49952,70.3458 L54.07632,77.3082 C53.90592,78.1422 54.43512,78.9534 55.27032,79.131 C55.37472,79.1526 55.48752,79.1634 55.58952,79.1646 C56.30472,79.1694 56.94912,78.6666 57.09912,77.925 L57.76272,74.6766 C57.76272,74.6766 59.83152,77.889 60.15672,78.3918 C60.15672,78.3918 60.21192,78.4794 60.23952,78.5166 C60.51192,78.9018 60.97392,79.1646 61.49472,79.1646 C62.25552,79.1646 62.88672,78.6114 63.01392,77.883 L64.42512,70.9698 C64.59552,70.1358 64.05792,69.321 63.22272,69.1506" id="Fill-8" fill="#FFFFFF"></path>
            <path d="M89.50692,69.29244 C88.71972,68.89524 87.75612,69.21924 87.36252,70.01484 L85.66572,73.42884 L84.56652,70.20084 L84.56532,70.20084 C84.34692,69.57444 83.75292,69.12444 83.05452,69.12444 C82.49772,69.12444 82.00812,69.41004 81.72132,69.84324 L81.71892,69.84324 L79.52652,73.20324 L79.13892,70.48164 C79.00452,69.60444 78.18972,69.00804 77.31852,69.14244 C76.44732,69.27564 75.84972,70.08444 75.98292,70.95684 L76.99092,77.73084 C77.07372,78.54084 77.75532,79.17444 78.58332,79.17444 C79.17852,79.17444 79.69812,78.84684 79.97292,78.36084 L82.60092,74.33364 L83.86332,78.04164 C84.06492,78.69684 84.67332,79.17444 85.39212,79.17444 C86.05932,79.17444 86.63172,78.76284 86.87172,78.17844 L90.22092,71.43564 C90.61692,70.64484 90.29532,69.68964 89.50692,69.29244" id="Fill-10" fill="#FFFFFF"></path>
            <path d="M26.18628,32.59212 C24.95148,32.59212 23.94708,33.59652 23.94708,34.83132 L23.94708,48.96012 C23.94708,50.19492 24.95148,51.19932 26.18628,51.19932 L123.81348,51.19932 C125.04828,51.19932 126.05268,50.19492 126.05268,48.96012 L126.05268,34.83132 C126.05268,33.59652 125.04828,32.59212 123.81348,32.59212 L26.18628,32.59212 Z" id="Fill-12" fill="#FFFFFF"></path>
            <path d="M37.16796,45.47328 C37.53636,45.47328 37.71996,45.66168 37.71996,46.03968 C37.71996,46.42608 37.53636,46.61928 37.16796,46.61928 L31.75476,46.61928 C31.54236,46.61928 31.37916,46.57128 31.26396,46.47408 C31.14876,46.37808 31.09116,46.22328 31.09116,46.01088 L31.09116,37.64208 C31.09116,37.43088 31.14876,37.27608 31.26396,37.18008 C31.37916,37.08288 31.54236,37.03488 31.75476,37.03488 L37.16796,37.03488 C37.53636,37.03488 37.71996,37.22328 37.71996,37.60128 C37.71996,37.98768 37.53636,38.18088 37.16796,38.18088 L32.41716,38.18088 L32.41716,41.14968 L36.87756,41.14968 C37.24596,41.14968 37.43076,41.33928 37.43076,41.71608 C37.43076,42.10248 37.24596,42.29568 36.87756,42.29568 L32.41716,42.29568 L32.41716,45.47328 L37.16796,45.47328 Z" id="Fill-14" fill="#F0A000"></path>
            <path d="M39.83316,46.716 C39.40956,46.716 39.19716,46.518 39.19716,46.122 L39.19716,40.1556 C39.19716,39.9444 39.24396,39.792 39.33636,39.7008 C39.42756,39.6084 39.58476,39.5616 39.80556,39.5616 C40.03596,39.5616 40.19676,39.6084 40.28916,39.7008 C40.38036,39.792 40.42716,39.9444 40.42716,40.1556 L40.42716,40.7076 C40.64796,40.2936 40.96116,39.9768 41.36676,39.7548 C41.77116,39.534 42.23676,39.4236 42.76116,39.4236 C43.54356,39.4236 44.14956,39.636 44.57796,40.0584 C45.00516,40.482 45.21996,41.0856 45.21996,41.868 L45.21996,46.122 C45.21996,46.518 45.00276,46.716 44.57076,46.716 C44.14716,46.716 43.93476,46.518 43.93476,46.122 L43.93476,42.228 C43.93476,41.6568 43.81836,41.2428 43.58316,40.9848 C43.34796,40.7268 42.96876,40.5972 42.44316,40.5972 C41.83596,40.5972 41.35716,40.8324 41.00676,41.3028 C40.65756,41.772 40.48236,42.4116 40.48236,43.2216 L40.48236,46.122 C40.48236,46.518 40.26516,46.716 39.83316,46.716" id="Fill-16" fill="#F0A000"></path>
            <path d="M49.25196,46.84008 C47.99916,46.84008 47.37396,46.22808 47.37396,45.00408 L47.37396,40.72248 L46.76556,40.72248 C46.59996,40.72248 46.48116,40.68048 46.40676,40.59768 C46.33356,40.51488 46.29636,40.37688 46.29636,40.18368 C46.29636,39.83328 46.45236,39.65808 46.76556,39.65808 L47.37396,39.65808 L47.37396,38.25048 C47.37396,38.08368 47.39196,37.95768 47.42916,37.87008 C47.46516,37.78248 47.53476,37.70688 47.63676,37.64208 C47.81076,37.53168 48.00876,37.47648 48.22956,37.47648 C48.51516,37.47648 48.65796,37.61928 48.65796,37.90488 L48.65796,39.65808 L49.92876,39.65808 C50.24196,39.65808 50.39796,39.83328 50.39796,40.18368 C50.39796,40.37688 50.36196,40.51488 50.28756,40.59768 C50.21316,40.68048 50.09436,40.72248 49.92876,40.72248 L48.65796,40.72248 L48.65796,44.72688 C48.65796,45.09528 48.71316,45.35088 48.82356,45.49368 C48.93396,45.63648 49.13196,45.70728 49.41756,45.70728 C49.59276,45.70728 49.77756,45.66168 49.97076,45.56928 C50.07156,45.52368 50.14476,45.49368 50.19156,45.47928 C50.23716,45.46608 50.29236,45.46008 50.35716,45.46008 C50.48556,45.46008 50.59836,45.52128 50.69556,45.64608 C50.79156,45.76968 50.84076,45.91488 50.84076,46.08048 C50.84076,46.28328 50.74356,46.44408 50.55036,46.56408 C50.25516,46.74768 49.82316,46.84008 49.25196,46.84008" id="Fill-18" fill="#F0A000"></path>
            <path d="M56.7516,42.40716 C56.6868,41.79876 56.4912,41.32956 56.1648,40.99836 C55.8384,40.66716 55.398,40.50036 54.846,40.50036 C54.3024,40.50036 53.8656,40.67436 53.5344,41.01876 C53.202,41.36436 52.9908,41.82636 52.8984,42.40716 L56.7516,42.40716 Z M54.9288,46.85436 C54.4044,46.85436 53.9268,46.76676 53.4996,46.59156 C53.0712,46.41756 52.71,46.16796 52.4148,45.84636 C52.1208,45.52356 51.8928,45.13476 51.732,44.67876 C51.57,44.22276 51.4896,43.71036 51.4896,43.13916 C51.4896,42.57756 51.57,42.06636 51.732,41.60556 C51.8928,41.14596 52.1208,40.75476 52.4148,40.43196 C52.71,40.10916 53.064,39.86196 53.478,39.68556 C53.8932,39.51156 54.3528,39.42396 54.8592,39.42396 C55.3476,39.42396 55.788,39.50676 56.1792,39.67236 C56.5692,39.83796 56.904,40.07796 57.18,40.39116 C57.456,40.70436 57.6708,41.07876 57.822,41.51676 C57.9744,41.95356 58.05,42.43956 58.05,42.97356 C58.05,43.32276 57.8652,43.49796 57.4968,43.49796 L52.8432,43.49796 C52.8432,43.82076 52.8912,44.11716 52.9884,44.38836 C53.0844,44.66076 53.2212,44.89476 53.3952,45.09276 C53.5704,45.29076 53.7864,45.44556 54.0444,45.55596 C54.3024,45.66636 54.5976,45.72156 54.9288,45.72156 C55.2684,45.72156 55.5756,45.65916 55.8468,45.53556 C56.118,45.41076 56.3736,45.20196 56.6136,44.90676 C56.7156,44.79636 56.7996,44.72076 56.8692,44.67876 C56.9388,44.63676 57.0228,44.61636 57.1248,44.61636 C57.2808,44.61636 57.4188,44.66916 57.5388,44.77596 C57.6588,44.88156 57.7188,45.00396 57.7188,45.14196 C57.7188,45.21516 57.7044,45.28476 57.6768,45.34836 C57.6492,45.41316 57.5892,45.50556 57.4968,45.62436 C56.8716,46.44396 56.0148,46.85436 54.9288,46.85436 Z" id="Fill-20" fill="#F0A000" fill-rule="nonzero"></path>
            <path d="M60.20424,46.716 C59.78064,46.716 59.56824,46.518 59.56824,46.122 L59.56824,40.1556 C59.56824,39.9444 59.61504,39.792 59.70744,39.7008 C59.79864,39.6084 59.95584,39.5616 60.17664,39.5616 C60.40704,39.5616 60.56784,39.6084 60.66024,39.7008 C60.75144,39.792 60.79824,39.9444 60.79824,40.1556 L60.79824,40.8192 C61.26744,39.972 61.95384,39.5484 62.85624,39.5484 C63.27984,39.5484 63.49104,39.7548 63.49104,40.17 C63.49104,40.602 63.28344,40.824 62.86944,40.8324 C62.40024,40.842 62.00424,40.9476 61.68264,41.1504 C61.12944,41.5008 60.85344,42.2328 60.85344,43.3464 L60.85344,46.122 C60.85344,46.518 60.63624,46.716 60.20424,46.716" id="Fill-22" fill="#F0A000"></path>
            <path d="M65.4666,45.00408 L65.4666,40.72248 L64.8582,40.72248 C64.6926,40.72248 64.5738,40.68048 64.4994,40.59768 C64.4262,40.51488 64.389,40.37688 64.389,40.18368 C64.389,39.83328 64.545,39.65808 64.8582,39.65808 L65.4666,39.65808 L65.4666,38.25048 C65.4666,38.08368 65.4846,37.95768 65.5218,37.87008 C65.5578,37.78248 65.6274,37.70688 65.7294,37.64208 C65.9034,37.53168 66.1014,37.47648 66.3222,37.47648 C66.6078,37.47648 66.7506,37.61928 66.7506,37.90488 L66.7506,39.65808 L68.0214,39.65808 C68.3346,39.65808 68.4906,39.83328 68.4906,40.18368 C68.4906,40.37688 68.4546,40.51488 68.3802,40.59768 C68.3058,40.68048 68.187,40.72248 68.0214,40.72248 L66.7506,40.72248 L66.7506,44.72688 C66.7506,45.09528 66.8058,45.35088 66.9162,45.49368 C67.0278,45.63648 67.2246,45.70728 67.5102,45.70728 C67.6854,45.70728 67.8702,45.66168 68.0634,45.56928 C68.1642,45.52368 68.2374,45.49368 68.2842,45.47928 C68.3298,45.46608 68.385,45.46008 68.4498,45.46008 C68.5782,45.46008 68.691,45.52128 68.7882,45.64608 C68.8842,45.76968 68.9334,45.91488 68.9334,46.08048 C68.9334,46.28328 68.8362,46.44408 68.643,46.56408 C68.3478,46.74768 67.9158,46.84008 67.3446,46.84008 C66.0918,46.84008 65.4666,46.22808 65.4666,45.00408 Z" id="Fill-24" fill="#F0A000"></path>
            <path d="M72.2478,45.7632 C72.5514,45.7632 72.8346,45.7176 73.0974,45.6252 C73.3602,45.5328 73.5882,45.4044 73.7814,45.2376 C73.9746,45.072 74.1258,44.8788 74.2374,44.658 C74.3478,44.4372 74.4018,44.202 74.4018,43.9536 L74.4018,43.236 C74.2914,43.236 74.163,43.2384 74.0154,43.242 C73.8678,43.2468 73.719,43.254 73.5666,43.2636 C73.4154,43.272 73.2702,43.2816 73.1322,43.2912 C72.993,43.3008 72.879,43.3092 72.7866,43.3188 C72.105,43.4016 71.6238,43.5456 71.343,43.7532 C71.0622,43.9608 70.9218,44.2668 70.9218,44.6724 C70.9218,45.0216 71.037,45.2916 71.2674,45.48 C71.4978,45.6684 71.8242,45.7632 72.2478,45.7632 M72.0402,46.7988 C71.295,46.7988 70.7106,46.6212 70.287,46.2672 C69.8634,45.9132 69.651,45.4224 69.651,44.796 C69.651,44.4096 69.7182,44.0712 69.8514,43.7808 C69.9846,43.4916 70.1922,43.2468 70.473,43.0488 C70.7538,42.8508 71.115,42.6948 71.5578,42.5796 C71.9994,42.4644 72.5286,42.384 73.1454,42.3384 C73.3386,42.3192 73.551,42.306 73.7814,42.2964 C74.0106,42.2868 74.2182,42.282 74.4018,42.282 L74.4018,42.0204 C74.4018,41.5044 74.271,41.1276 74.0094,40.8876 C73.7466,40.6488 73.3338,40.5288 72.7734,40.5288 C72.441,40.5288 72.1602,40.5792 71.931,40.68 C71.7006,40.782 71.4558,40.9668 71.1978,41.2332 C71.097,41.3436 71.0094,41.4168 70.9362,41.454 C70.8618,41.4912 70.7742,41.5092 70.6734,41.5092 C70.5078,41.5092 70.3626,41.454 70.2378,41.3436 C70.1142,41.2332 70.0518,41.1036 70.0518,40.9572 C70.0518,40.8096 70.1022,40.6668 70.2042,40.5288 C70.461,40.188 70.8234,39.9192 71.2878,39.72 C71.7522,39.5232 72.261,39.4236 72.8142,39.4236 C73.7442,39.4236 74.4558,39.6312 74.9478,40.0452 C75.4398,40.4604 75.687,41.0628 75.687,41.8548 L75.687,46.2192 C75.687,46.5504 75.4698,46.716 75.0378,46.716 C74.6142,46.716 74.4018,46.5504 74.4018,46.2192 L74.4018,45.6384 C74.1354,46.0164 73.8042,46.3044 73.4082,46.5024 C73.0122,46.7004 72.5562,46.7988 72.0402,46.7988" id="Fill-26" fill="#F0A000" fill-rule="nonzero"></path>
            <path d="M78.03444,46.716 C77.61084,46.716 77.39844,46.518 77.39844,46.122 L77.39844,40.1556 C77.39844,39.7596 77.61084,39.5616 78.03444,39.5616 C78.46644,39.5616 78.68364,39.7596 78.68364,40.1556 L78.68364,46.122 C78.68364,46.518 78.46644,46.716 78.03444,46.716 M78.04764,38.4708 C77.80884,38.4708 77.61564,38.4024 77.46804,38.2632 C77.32044,38.1264 77.24724,37.9272 77.24724,37.6704 C77.24724,37.4208 77.32044,37.2276 77.46804,37.0896 C77.61564,36.9516 77.80884,36.882 78.04764,36.882 C78.27804,36.882 78.46644,36.9516 78.61404,37.0896 C78.76164,37.2276 78.83604,37.4208 78.83604,37.6704 C78.83604,37.9272 78.76164,38.1264 78.61404,38.2632 C78.46644,38.4024 78.27804,38.4708 78.04764,38.4708" id="Fill-28" fill="#F0A000" fill-rule="nonzero"></path>
            <path d="M81.32124,46.716 C80.89764,46.716 80.68524,46.518 80.68524,46.122 L80.68524,40.1556 C80.68524,39.9444 80.73204,39.792 80.82444,39.7008 C80.91564,39.6084 81.07284,39.5616 81.29364,39.5616 C81.52404,39.5616 81.68484,39.6084 81.77724,39.7008 C81.86844,39.792 81.91524,39.9444 81.91524,40.1556 L81.91524,40.7076 C82.13604,40.2936 82.44924,39.9768 82.85484,39.7548 C83.25924,39.534 83.72484,39.4236 84.24924,39.4236 C85.03164,39.4236 85.63764,39.636 86.06604,40.0584 C86.49324,40.482 86.70804,41.0856 86.70804,41.868 L86.70804,46.122 C86.70804,46.518 86.49084,46.716 86.05884,46.716 C85.63524,46.716 85.42284,46.518 85.42284,46.122 L85.42284,42.228 C85.42284,41.6568 85.30644,41.2428 85.07124,40.9848 C84.83604,40.7268 84.45684,40.5972 83.93124,40.5972 C83.32404,40.5972 82.84524,40.8324 82.49484,41.3028 C82.14564,41.772 81.97044,42.4116 81.97044,43.2216 L81.97044,46.122 C81.97044,46.518 81.75324,46.716 81.32124,46.716" id="Fill-30" fill="#F0A000"></path>
            <path d="M89.08272,46.716 C88.65912,46.716 88.44672,46.518 88.44672,46.122 L88.44672,40.1556 C88.44672,39.9444 88.49352,39.792 88.58592,39.7008 C88.67712,39.6084 88.83432,39.5616 89.05512,39.5616 C89.28552,39.5616 89.44632,39.6084 89.53872,39.7008 C89.62992,39.792 89.67672,39.9444 89.67672,40.1556 L89.67672,40.7076 C89.88792,40.2936 90.18312,39.9768 90.56112,39.7548 C90.93792,39.534 91.37592,39.4236 91.87272,39.4236 C92.38752,39.4236 92.82552,39.5268 93.18432,39.7344 C93.54312,39.942 93.81072,40.2516 93.98592,40.6668 C94.20672,40.2804 94.53312,39.9768 94.96632,39.7548 C95.39952,39.534 95.85912,39.4236 96.34752,39.4236 C97.09272,39.4236 97.66872,39.636 98.07432,40.0584 C98.47872,40.482 98.68152,41.0856 98.68152,41.868 L98.68152,46.122 C98.68152,46.518 98.46552,46.716 98.03232,46.716 C97.60872,46.716 97.39752,46.518 97.39752,46.122 L97.39752,42.228 C97.39752,41.6568 97.28592,41.2428 97.06512,40.9848 C96.84432,40.7268 96.49992,40.5972 96.02952,40.5972 C95.46792,40.5972 95.02392,40.8324 94.69752,41.3028 C94.36992,41.772 94.20672,42.4116 94.20672,43.2216 L94.20672,46.122 C94.20672,46.518 93.99072,46.716 93.55752,46.716 C93.13392,46.716 92.92152,46.518 92.92152,46.122 L92.92152,42.228 C92.92152,41.6568 92.81112,41.2428 92.59032,40.9848 C92.36952,40.7268 92.02512,40.5972 91.55472,40.5972 C90.99312,40.5972 90.54912,40.8324 90.22272,41.3028 C89.89512,41.772 89.73192,42.4116 89.73192,43.2216 L89.73192,46.122 C89.73192,46.518 89.51472,46.716 89.08272,46.716" id="Fill-32" fill="#F0A000"></path>
            <path d="M104.97912,42.40716 C104.91432,41.79876 104.71872,41.32956 104.39232,40.99836 C104.06592,40.66716 103.62552,40.50036 103.07352,40.50036 C102.52992,40.50036 102.09312,40.67436 101.76192,41.01876 C101.42952,41.36436 101.21832,41.82636 101.12592,42.40716 L104.97912,42.40716 Z M103.15632,46.85436 C102.63192,46.85436 102.15432,46.76676 101.72712,46.59156 C101.29872,46.41756 100.93752,46.16796 100.64232,45.84636 C100.34832,45.52356 100.12032,45.13476 99.95952,44.67876 C99.79752,44.22276 99.71712,43.71036 99.71712,43.13916 C99.71712,42.57756 99.79752,42.06636 99.95952,41.60556 C100.12032,41.14596 100.34832,40.75476 100.64232,40.43196 C100.93752,40.10916 101.29152,39.86196 101.70552,39.68556 C102.12072,39.51156 102.58032,39.42396 103.08672,39.42396 C103.57512,39.42396 104.01552,39.50676 104.40672,39.67236 C104.79672,39.83796 105.13152,40.07796 105.40752,40.39116 C105.68352,40.70436 105.89832,41.07876 106.04952,41.51676 C106.20192,41.95356 106.27752,42.43956 106.27752,42.97356 C106.27752,43.32276 106.09272,43.49796 105.72432,43.49796 L101.07072,43.49796 C101.07072,43.82076 101.11872,44.11716 101.21592,44.38836 C101.31192,44.66076 101.44872,44.89476 101.62272,45.09276 C101.79792,45.29076 102.01392,45.44556 102.27192,45.55596 C102.52992,45.66636 102.82512,45.72156 103.15632,45.72156 C103.49592,45.72156 103.80312,45.65916 104.07432,45.53556 C104.34552,45.41076 104.60112,45.20196 104.84112,44.90676 C104.94312,44.79636 105.02712,44.72076 105.09672,44.67876 C105.16632,44.63676 105.25032,44.61636 105.35232,44.61636 C105.50832,44.61636 105.64632,44.66916 105.76632,44.77596 C105.88632,44.88156 105.94632,45.00396 105.94632,45.14196 C105.94632,45.21516 105.93312,45.28476 105.90432,45.34836 C105.87672,45.41316 105.81672,45.50556 105.72432,45.62436 C105.09912,46.44396 104.24232,46.85436 103.15632,46.85436 Z" id="Fill-34" fill="#F0A000" fill-rule="nonzero"></path>
            <path d="M108.15564,46.716 C107.73204,46.716 107.52084,46.518 107.52084,46.122 L107.52084,40.1556 C107.52084,39.9444 107.56644,39.792 107.65884,39.7008 C107.75004,39.6084 107.90724,39.5616 108.12804,39.5616 C108.35844,39.5616 108.51924,39.6084 108.61164,39.7008 C108.70284,39.792 108.74964,39.9444 108.74964,40.1556 L108.74964,40.7076 C108.97044,40.2936 109.28364,39.9768 109.68924,39.7548 C110.09364,39.534 110.55924,39.4236 111.08364,39.4236 C111.86604,39.4236 112.47204,39.636 112.90044,40.0584 C113.32764,40.482 113.54244,41.0856 113.54244,41.868 L113.54244,46.122 C113.54244,46.518 113.32524,46.716 112.89324,46.716 C112.46964,46.716 112.25724,46.518 112.25724,46.122 L112.25724,42.228 C112.25724,41.6568 112.14084,41.2428 111.90564,40.9848 C111.67044,40.7268 111.29124,40.5972 110.76564,40.5972 C110.15844,40.5972 109.67964,40.8324 109.32924,41.3028 C108.98004,41.772 108.80484,42.4116 108.80484,43.2216 L108.80484,46.122 C108.80484,46.518 108.58764,46.716 108.15564,46.716" id="Fill-36" fill="#F0A000"></path>
            <path d="M115.69644,45.00408 L115.69644,40.72248 L115.08804,40.72248 C114.92244,40.72248 114.80364,40.68048 114.72924,40.59768 C114.65604,40.51488 114.61884,40.37688 114.61884,40.18368 C114.61884,39.83328 114.77484,39.65808 115.08804,39.65808 L115.69644,39.65808 L115.69644,38.25048 C115.69644,38.08368 115.71444,37.95768 115.75164,37.87008 C115.78764,37.78248 115.85724,37.70688 115.95924,37.64208 C116.13324,37.53168 116.33124,37.47648 116.55204,37.47648 C116.83764,37.47648 116.98044,37.61928 116.98044,37.90488 L116.98044,39.65808 L118.25124,39.65808 C118.56444,39.65808 118.72044,39.83328 118.72044,40.18368 C118.72044,40.37688 118.68444,40.51488 118.61004,40.59768 C118.53564,40.68048 118.41684,40.72248 118.25124,40.72248 L116.98044,40.72248 L116.98044,44.72688 C116.98044,45.09528 117.03564,45.35088 117.14604,45.49368 C117.25764,45.63648 117.45444,45.70728 117.74004,45.70728 C117.91524,45.70728 118.10004,45.66168 118.29324,45.56928 C118.39404,45.52368 118.46724,45.49368 118.51404,45.47928 C118.55964,45.46608 118.61484,45.46008 118.67964,45.46008 C118.80804,45.46008 118.92084,45.52128 119.01804,45.64608 C119.11404,45.76968 119.16324,45.91488 119.16324,46.08048 C119.16324,46.28328 119.06604,46.44408 118.87284,46.56408 C118.57764,46.74768 118.14564,46.84008 117.57444,46.84008 C116.32164,46.84008 115.69644,46.22808 115.69644,45.00408 Z" id="Fill-38" fill="#F0A000"></path>
        </g>
    </g>
</svg>