<?xml version="1.0" encoding="utf-8"?>
<!-- Generator: Adobe Illustrator 23.0.1, SVG Export Plug-In . SVG Version: 6.00 Build 0)  -->
<svg version="1.1" id="Layer_1" xmlns="http://www.w3.org/2000/svg" xmlns:xlink="http://www.w3.org/1999/xlink" x="0px" y="0px"
	 viewBox="0 0 150 85" style="enable-background:new 0 0 150 85;" xml:space="preserve">
<style type="text/css">
	.st0{fill-rule:evenodd;clip-rule:evenodd;fill:#E53139;}
	.st1{fill-rule:evenodd;clip-rule:evenodd;fill:#FFFFFF;}
	.st2{fill:#E53139;}
</style>
<title>Artboard</title>
<desc>Created with Sketch.</desc>
<g id="Artboard">
	<g id="KidsNew">
		<path id="Fill-2" class="st0" d="M-0.2,33.1c5.2,0,9.4,4.2,9.4,9.4c0,5.2-4.2,9.4-9.4,9.4V85h150V51.9c-5.2,0-9.4-4.2-9.4-9.4
			s4.2-9.4,9.4-9.4V0h-150V33.1z"/>
		<g id="Group" transform="translate(56.000000, 33.000000)">
			<path class="st1" d="M37.7,0.4H1.5c-1,0-1.7,0.8-1.7,1.7v14.8c0,1,0.8,1.7,1.7,1.7h36.2c1,0,1.7-0.8,1.7-1.7V2.1
				C39.5,1.2,38.7,0.4,37.7,0.4"/>
		</g>
		<path class="st1" d="M99.8,70.4c0-0.1-0.1-0.2-0.3-0.2c-0.1,0-0.1,0-0.2,0c-0.2,0-0.4,0.1-0.4,0.3l-1.2,2.9l-1.2-2.9
			c0,0,0,0,0-0.1c-0.1-0.1-0.2-0.2-0.3-0.2c0,0,0,0-0.1,0h-4c-0.3,0-0.5,0.2-0.5,0.4S91.8,71,92,71h1.3v3.5c0,0.2,0.2,0.4,0.5,0.4
			s0.5-0.2,0.5-0.4V71h1.4c0,0,1.5,3.6,1.5,3.7c0.1,0.1,0.2,0.2,0.3,0.3c0,0,0,0,0.1,0c0.2,0,0.4-0.1,0.4-0.3c0,0,1.6-4,1.6-4
			C99.8,70.7,99.8,70.5,99.8,70.4 M70.1,70c-2.9,0-5.3,2.2-5.3,5c0,2.8,2.4,5,5.3,5c2.9,0,5.3-2.2,5.3-5C75.3,72.2,73,70,70.1,70
			 M63.1,70.2c0.8,0.2,1.4,0.9,1.2,1.8l-1.4,6.7c-0.1,0.7-0.8,1.2-1.5,1.2c-0.5,0-1-0.3-1.3-0.6c0,0-0.1-0.1-0.1-0.1
			c-0.3-0.5-2.4-3.6-2.4-3.6l-0.7,3.1c-0.2,0.7-0.8,1.2-1.5,1.2c-0.1,0-0.2,0-0.3,0c-0.8-0.2-1.4-1-1.2-1.8l1.4-6.7
			c0.2-0.7,0.8-1.2,1.5-1.2c0.5,0,1,0.3,1.3,0.7l2.5,3.6l0.7-3.1C61.4,70.5,62.2,70,63.1,70.2z M76,71.9c-0.1-0.8,0.5-1.6,1.4-1.7
			c0.9-0.1,1.7,0.4,1.8,1.3l0.4,2.6l2.2-3.2h0c0.3-0.4,0.8-0.7,1.4-0.7c0.7,0,1.3,0.4,1.5,1l0,0l1.1,3.1l1.7-3.3
			c0.4-0.8,1.4-1.1,2.2-0.7c0.8,0.4,1.1,1.3,0.7,2.1L87,78.9c-0.2,0.6-0.8,1-1.5,1c-0.7,0-1.3-0.5-1.5-1.1l-1.3-3.6l-2.7,3.9
			c-0.3,0.5-0.8,0.8-1.4,0.8c-0.8,0-1.5-0.6-1.6-1.4L76,71.9z"/>
	</g>
	<g>
		<path class="st2" d="M63,47.4c-0.4,0-0.7-0.2-0.7-0.6v-8.7c0-0.4,0.2-0.6,0.7-0.6c0.4,0,0.7,0.2,0.7,0.6v4l4.5-4.4
			c0.2-0.2,0.3-0.3,0.5-0.3c0.2,0,0.3,0.1,0.4,0.2c0.1,0.1,0.2,0.2,0.2,0.4c0,0.1-0.1,0.3-0.3,0.5l-3.1,3l3.8,4.9
			c0.1,0.1,0.1,0.3,0.1,0.4c0,0.2-0.1,0.3-0.2,0.4s-0.3,0.2-0.5,0.2c-0.1,0-0.2,0-0.3-0.1s-0.2-0.2-0.3-0.3l-3.5-4.6l-1.4,1.4v3
			C63.7,47.2,63.5,47.4,63,47.4z"/>
		<path class="st2" d="M72.1,39c-0.2,0-0.4-0.1-0.6-0.2c-0.1-0.1-0.2-0.3-0.2-0.6c0-0.3,0.1-0.4,0.2-0.6c0.1-0.1,0.3-0.2,0.6-0.2
			c0.2,0,0.4,0.1,0.6,0.2c0.1,0.1,0.2,0.3,0.2,0.6c0,0.3-0.1,0.5-0.2,0.6C72.5,39,72.3,39,72.1,39z M72.1,47.4
			c-0.4,0-0.6-0.2-0.6-0.6v-6c0-0.4,0.2-0.6,0.6-0.6c0.4,0,0.7,0.2,0.7,0.6v6C72.7,47.2,72.5,47.4,72.1,47.4z"/>
		<path class="st2" d="M77.7,47.5c-0.5,0-0.9-0.1-1.3-0.3s-0.7-0.4-1-0.8s-0.5-0.7-0.6-1.2s-0.2-1-0.2-1.6c0-0.6,0.1-1.1,0.2-1.5
			c0.1-0.5,0.4-0.9,0.6-1.2c0.3-0.3,0.6-0.6,1-0.7s0.8-0.3,1.3-0.3c0.5,0,0.9,0.1,1.4,0.3c0.4,0.2,0.7,0.5,0.9,0.9v-3.1
			c0-0.4,0.2-0.6,0.6-0.6c0.4,0,0.7,0.2,0.7,0.6v8.7c0,0.2,0,0.4-0.1,0.4c-0.1,0.1-0.3,0.1-0.5,0.1c-0.2,0-0.4,0-0.5-0.1
			C80,47.2,80,47,80,46.8v-0.5c-0.2,0.4-0.5,0.7-0.9,0.9C78.7,47.4,78.2,47.5,77.7,47.5z M78,46.4c0.6,0,1.1-0.2,1.5-0.7
			s0.5-1.1,0.5-1.9c0-0.8-0.2-1.5-0.5-1.9s-0.9-0.7-1.5-0.7c-0.6,0-1.1,0.2-1.4,0.7S76,43,76,43.8c0,0.8,0.2,1.5,0.5,1.9
			C76.8,46.2,77.3,46.4,78,46.4z"/>
		<path class="st2" d="M86.1,47.5c-0.6,0-1.1-0.1-1.5-0.2s-0.8-0.3-1.1-0.5c-0.2-0.1-0.3-0.3-0.3-0.5c0-0.2,0.1-0.3,0.2-0.5
			c0.1-0.1,0.3-0.2,0.4-0.2c0.1,0,0.2,0,0.3,0c0.1,0,0.2,0.1,0.3,0.2c0.5,0.4,1.1,0.6,1.8,0.6c0.5,0,0.8-0.1,1.1-0.3
			c0.3-0.2,0.4-0.4,0.4-0.8c0-0.3-0.1-0.6-0.3-0.7c-0.2-0.2-0.5-0.3-1-0.4l-0.9-0.1c-0.7-0.1-1.2-0.3-1.6-0.7
			c-0.4-0.3-0.5-0.8-0.5-1.4c0-0.7,0.2-1.2,0.7-1.6c0.5-0.4,1.2-0.6,2-0.6c1,0,1.8,0.2,2.4,0.7c0.2,0.1,0.3,0.3,0.3,0.5
			c0,0.2-0.1,0.3-0.2,0.4c-0.1,0.1-0.2,0.2-0.4,0.2c-0.1,0-0.2,0-0.3,0c-0.1,0-0.2-0.1-0.3-0.2c-0.3-0.2-0.6-0.3-0.8-0.4
			s-0.5-0.1-0.8-0.1c-0.4,0-0.8,0.1-1,0.3c-0.2,0.2-0.4,0.4-0.4,0.7c0,0.3,0.1,0.5,0.3,0.7c0.2,0.2,0.5,0.3,1,0.3l0.9,0.1
			c0.8,0.1,1.3,0.4,1.7,0.7c0.3,0.3,0.5,0.8,0.5,1.4c0,0.7-0.2,1.2-0.7,1.6C87.7,47.3,87,47.5,86.1,47.5z"/>
	</g>
</g>
</svg>
